<svg height="848" viewBox="0 0 1199 2543" width="400" xmlns="http://www.w3.org/2000/svg" xmlns:xlink="http://www.w3.org/1999/xlink"><defs><radialGradient id="a" cx="52.271485%" cy="50%" gradientTransform="matrix(0 .466895 -1 0 1.022715 .255947)" r="123.32871%"><stop offset="0" stop-color="#1e1e1e"/><stop offset="1" stop-color="#0a0a0a"/></radialGradient><path id="b" d="m154.029311 0h881.664579c114.20599 0 151.30611 87.8514546 151.30611 150.622093v2247.165697c0 49.2064-33.95942 144.53993-151.30611 144.53993-24.57862 0-334.295867 0-890.583961 0-116.3149936 0-145.109929-99.88396-145.109929-150.789 0-1414.810583 0-2164.203425 0-2236.402125 0-112.2279927 86.9594482-155.136595 154.029311-155.136595z"/><filter id="c" height="100.2%" width="100.4%" x="-.2%" y="-.1%"><feMorphology in="SourceAlpha" operator="erode" radius="3" result="shadowSpreadInner1"/><feGaussianBlur in="shadowSpreadInner1" result="shadowBlurInner1" stdDeviation="1"/><feOffset dx="0" dy="0" in="shadowBlurInner1" result="shadowOffsetInner1"/><feComposite in="shadowOffsetInner1" in2="SourceAlpha" k2="-1" k3="1" operator="arithmetic" result="shadowInnerInner1"/><feColorMatrix in="shadowInnerInner1" type="matrix" values="0 0 0 0 1   0 0 0 0 1   0 0 0 0 1  0 0 0 0.3 0"/></filter><filter id="d" height="100.5%" width="101%" x="-.5%" y="-.2%"><feMorphology in="SourceAlpha" operator="erode" radius="12" result="shadowSpreadInner1"/><feOffset dx="0" dy="0" in="shadowSpreadInner1" result="shadowOffsetInner1"/><feComposite in="shadowOffsetInner1" in2="SourceAlpha" k2="-1" k3="1" operator="arithmetic" result="shadowInnerInner1"/><feColorMatrix in="shadowInnerInner1" type="matrix" values="0 0 0 0 0.921568627   0 0 0 0 0.921568627   0 0 0 0 0.921568627  0 0 0 0.35 0"/></filter><linearGradient id="e" x1="50%" x2="50%" y1="0%" y2="100%"><stop offset="0" stop-color="#373737"/><stop offset=".0307923525" stop-color="#4c4c4c"/><stop offset=".0685746044" stop-color="#363636"/><stop offset=".916234853" stop-color="#3d3d3d"/><stop offset=".971220823" stop-color="#202020"/><stop offset="1" stop-color="#767676"/></linearGradient><path id="f" d="m1187 552h6c3.31371 0 6 2.686292 6 6v165c0 3.313708-2.68629 6-6 6h-6z"/><filter id="g" height="107.9%" width="216.7%" x="-58.3%" y="-4%"><feMorphology in="SourceAlpha" operator="erode" radius="2" result="shadowSpreadInner1"/><feGaussianBlur in="shadowSpreadInner1" result="shadowBlurInner1" stdDeviation=".5"/><feOffset dx="3" dy="0" in="shadowBlurInner1" result="shadowOffsetInner1"/><feComposite in="shadowOffsetInner1" in2="SourceAlpha" k2="-1" k3="1" operator="arithmetic" result="shadowInnerInner1"/><feColorMatrix in="shadowInnerInner1" result="shadowMatrixInner1" type="matrix" values="0 0 0 0 0   0 0 0 0 0   0 0 0 0 0  0 0 0 0.24 0"/><feMorphology in="SourceAlpha" operator="erode" radius="2" result="shadowSpreadInner2"/><feGaussianBlur in="shadowSpreadInner2" result="shadowBlurInner2" stdDeviation="2"/><feOffset dx="8" dy="0" in="shadowBlurInner2" result="shadowOffsetInner2"/><feComposite in="shadowOffsetInner2" in2="SourceAlpha" k2="-1" k3="1" operator="arithmetic" result="shadowInnerInner2"/><feColorMatrix in="shadowInnerInner2" result="shadowMatrixInner2" type="matrix" values="0 0 0 0 1   0 0 0 0 1   0 0 0 0 1  0 0 0 0.24 0"/><feGaussianBlur in="SourceAlpha" result="shadowBlurInner3" stdDeviation=".5"/><feOffset dx="-2" dy="0" in="shadowBlurInner3" result="shadowOffsetInner3"/><feComposite in="shadowOffsetInner3" in2="SourceAlpha" k2="-1" k3="1" operator="arithmetic" result="shadowInnerInner3"/><feColorMatrix in="shadowInnerInner3" result="shadowMatrixInner3" type="matrix" values="0 0 0 0 0   0 0 0 0 0   0 0 0 0 0  0 0 0 0.12 0"/><feMerge><feMergeNode in="shadowMatrixInner1"/><feMergeNode in="shadowMatrixInner2"/><feMergeNode in="shadowMatrixInner3"/></feMerge></filter><linearGradient id="h" x1="50%" x2="50%" y1="0%" y2="100%"><stop offset="0" stop-color="#505050"/><stop offset=".0134162668" stop-color="#b3b3b3"/><stop offset=".0412326856" stop-color="#212121"/><stop offset=".110692105" stop-color="#242424"/><stop offset=".876961723" stop-color="#191919"/><stop offset=".957457443" stop-color="#2a2a2a"/><stop offset="1" stop-color="#212121"/></linearGradient><path id="i" d="m1187 897h6c3.31371 0 6 2.686292 6 6v341c0 3.31371-2.68629 6-6 6h-6z"/><filter id="j" height="102.3%" width="166.7%" x="-33.3%" y="-1.1%"><feGaussianBlur in="SourceAlpha" result="shadowBlurInner1" stdDeviation="1"/><feOffset dx="6" dy="0" in="shadowBlurInner1" result="shadowOffsetInner1"/><feComposite in="shadowOffsetInner1" in2="SourceAlpha" k2="-1" k3="1" operator="arithmetic" result="shadowInnerInner1"/><feColorMatrix in="shadowInnerInner1" result="shadowMatrixInner1" type="matrix" values="0 0 0 0 0   0 0 0 0 0   0 0 0 0 0  0 0 0 0.1 0"/><feGaussianBlur in="SourceAlpha" result="shadowBlurInner2" stdDeviation=".5"/><feOffset dx="-3" dy="0" in="shadowBlurInner2" result="shadowOffsetInner2"/><feComposite in="shadowOffsetInner2" in2="SourceAlpha" k2="-1" k3="1" operator="arithmetic" result="shadowInnerInner2"/><feColorMatrix in="shadowInnerInner2" result="shadowMatrixInner2" type="matrix" values="0 0 0 0 1   0 0 0 0 1   0 0 0 0 1  0 0 0 0.4 0"/><feMerge><feMergeNode in="shadowMatrixInner1"/><feMergeNode in="shadowMatrixInner2"/></feMerge></filter></defs><g fill="none" fill-rule="evenodd"><use fill="url(#a)" fill-rule="evenodd" xlink:href="#b"/><use fill="#000" filter="url(#c)" xlink:href="#b"/><path d="m153.890554 12.0299419h878.870976c113.58632 0 146.23847 84.6522423 146.23847 146.9030931v2239.147875c0 48.79894-30.77011 135.22435-146.23847 135.22435-24.18519 0-331.487241 0-878.870976 0-114.4531693 0-142.890554-91.31508-142.890554-141.79858 0-1403.094884 0-2160.972805 0-2232.573645 0-111.2986604 76.8942616-146.9030931 142.890554-146.9030931z" fill="#000" filter="url(#d)"/><use fill="url(#e)" fill-rule="evenodd" xlink:href="#f"/><use fill="#000" filter="url(#g)" xlink:href="#f"/><use fill="url(#h)" fill-rule="evenodd" xlink:href="#i"/><use fill="#000" filter="url(#j)" xlink:href="#i"/><g fill="#333"><g fill-rule="nonzero"><rect height="33" rx="16.5" width="277" x="458" y="75"/><rect height="33" rx="16.5" width="277" x="458" y="2434"/></g><path d="m369.5 152c12.978692 0 23.5-10.521308 23.5-23.5s-10.521308-23.5-23.5-23.5-23.5 10.521308-23.5 23.5 10.521308 23.5 23.5 23.5zm0 5c15.740115 0 28.5-12.759885 28.5-28.5s-12.759885-28.5-28.5-28.5-28.5 12.759885-28.5 28.5 12.759885 28.5 28.5 28.5z"/><path d="m18.5 33.754386c8.4247647 0 15.254386-6.8296213 15.254386-15.254386s-6.8296213-15.25438596-15.254386-15.25438596-15.25438596 6.82962126-15.25438596 15.25438596 6.82962126 15.254386 15.25438596 15.254386zm0 3.245614c10.2172679 0 18.5-8.2827321 18.5-18.5 0-10.21726787-8.2827321-18.5-18.5-18.5-10.21726787 0-18.5 8.28273213-18.5 18.5 0 10.2172679 8.28273213 18.5 18.5 18.5z" transform="translate(205 110)"/></g><rect fill="#fff" height="2160" rx="45" width="1080" x="55" y="199"/></g></svg>